<mxfile host="app.diagrams.net" modified="2023-07-25T02:58:46.605Z" agent="Mozilla/5.0 (Windows NT 10.0; Win64; x64) AppleWebKit/537.36 (KHTML, like Gecko) Chrome/115.0.0.0 Safari/537.36 Edg/115.0.1901.183" etag="Tx_H_IRqHuD_2U2WOhDE" version="21.6.5" type="github">
  <diagram name="第 1 页" id="PgH_6d2bmsTRfbWRSEZU">
    <mxGraphModel dx="2077" dy="2279" grid="1" gridSize="10" guides="1" tooltips="1" connect="1" arrows="1" fold="1" page="1" pageScale="1" pageWidth="827" pageHeight="1169" math="0" shadow="0">
      <root>
        <mxCell id="0" />
        <mxCell id="1" parent="0" />
        <mxCell id="lfwIpQtfmE1u0c_9Xs-n-1" value="" style="rounded=1;whiteSpace=wrap;html=1;" vertex="1" parent="1">
          <mxGeometry x="60" y="-670" width="1880" height="1370" as="geometry" />
        </mxCell>
        <mxCell id="lfwIpQtfmE1u0c_9Xs-n-2" value="" style="rounded=0;whiteSpace=wrap;html=1;strokeWidth=2;fillColor=#dae8fc;strokeColor=#6c8ebf;" vertex="1" parent="1">
          <mxGeometry x="160" y="60" width="480" height="350" as="geometry" />
        </mxCell>
        <mxCell id="lfwIpQtfmE1u0c_9Xs-n-3" value="&lt;font style=&quot;font-size: 36px;&quot; color=&quot;#ff3333&quot; face=&quot;Times New Roman&quot;&gt;&lt;b&gt;awblm: amedac wblm&lt;/b&gt;&lt;/font&gt;" style="text;strokeColor=none;align=center;fillColor=none;html=1;verticalAlign=middle;whiteSpace=wrap;rounded=0;" vertex="1" parent="1">
          <mxGeometry x="234.5" y="69" width="369" height="30" as="geometry" />
        </mxCell>
        <mxCell id="lfwIpQtfmE1u0c_9Xs-n-4" value="" style="rounded=0;whiteSpace=wrap;html=1;strokeWidth=2;fillColor=#f5f5f5;fontColor=#333333;strokeColor=#666666;" vertex="1" parent="1">
          <mxGeometry x="160" y="-360" width="480" height="350" as="geometry" />
        </mxCell>
        <mxCell id="lfwIpQtfmE1u0c_9Xs-n-5" value="&lt;font style=&quot;font-size: 36px;&quot; color=&quot;#ff3333&quot; face=&quot;Times New Roman&quot;&gt;&lt;b&gt;workbench&lt;/b&gt;&lt;/font&gt;" style="text;strokeColor=none;align=center;fillColor=none;html=1;verticalAlign=middle;whiteSpace=wrap;rounded=0;" vertex="1" parent="1">
          <mxGeometry x="309" y="-352" width="209" height="30" as="geometry" />
        </mxCell>
        <mxCell id="lfwIpQtfmE1u0c_9Xs-n-6" value="" style="rounded=0;whiteSpace=wrap;html=1;strokeColor=#0000FF;" vertex="1" parent="1">
          <mxGeometry x="186" y="-312" width="120" height="110" as="geometry" />
        </mxCell>
        <mxCell id="lfwIpQtfmE1u0c_9Xs-n-7" value="&lt;font face=&quot;Times New Roman&quot;&gt;rpc client&lt;/font&gt;" style="rounded=1;whiteSpace=wrap;html=1;" vertex="1" parent="1">
          <mxGeometry x="210" y="-288" width="70" height="25" as="geometry" />
        </mxCell>
        <mxCell id="lfwIpQtfmE1u0c_9Xs-n-8" value="&lt;font face=&quot;Times New Roman&quot;&gt;&lt;b&gt;rpc&lt;br&gt;&lt;/b&gt;&lt;/font&gt;" style="text;strokeColor=none;align=center;fillColor=none;html=1;verticalAlign=middle;whiteSpace=wrap;rounded=0;fontColor=#3333FF;" vertex="1" parent="1">
          <mxGeometry x="216" y="-318" width="60" height="30" as="geometry" />
        </mxCell>
        <mxCell id="lfwIpQtfmE1u0c_9Xs-n-9" value="&lt;font face=&quot;Times New Roman&quot;&gt;rpc server&lt;/font&gt;" style="rounded=1;whiteSpace=wrap;html=1;" vertex="1" parent="1">
          <mxGeometry x="210" y="-250" width="70" height="27" as="geometry" />
        </mxCell>
        <mxCell id="lfwIpQtfmE1u0c_9Xs-n-10" value="" style="rounded=0;whiteSpace=wrap;html=1;strokeColor=#0000FF;" vertex="1" parent="1">
          <mxGeometry x="171" y="115" width="150" height="170" as="geometry" />
        </mxCell>
        <mxCell id="lfwIpQtfmE1u0c_9Xs-n-11" value="" style="rounded=0;whiteSpace=wrap;html=1;strokeColor=#000000;" vertex="1" parent="1">
          <mxGeometry x="186" y="121" width="120" height="110" as="geometry" />
        </mxCell>
        <mxCell id="lfwIpQtfmE1u0c_9Xs-n-12" value="&lt;font face=&quot;Times New Roman&quot;&gt;rpc client&lt;/font&gt;" style="rounded=1;whiteSpace=wrap;html=1;" vertex="1" parent="1">
          <mxGeometry x="210" y="145" width="70" height="25" as="geometry" />
        </mxCell>
        <mxCell id="lfwIpQtfmE1u0c_9Xs-n-13" value="&lt;font face=&quot;Times New Roman&quot;&gt;&lt;b&gt;rpc&lt;br&gt;&lt;/b&gt;&lt;/font&gt;" style="text;strokeColor=none;align=center;fillColor=none;html=1;verticalAlign=middle;whiteSpace=wrap;rounded=0;fontColor=#3333FF;" vertex="1" parent="1">
          <mxGeometry x="216" y="115" width="60" height="30" as="geometry" />
        </mxCell>
        <mxCell id="lfwIpQtfmE1u0c_9Xs-n-14" value="&lt;font face=&quot;Times New Roman&quot;&gt;rpc server&lt;/font&gt;" style="rounded=1;whiteSpace=wrap;html=1;" vertex="1" parent="1">
          <mxGeometry x="210" y="185" width="70" height="25" as="geometry" />
        </mxCell>
        <mxCell id="lfwIpQtfmE1u0c_9Xs-n-15" value="rpc" style="edgeStyle=elbowEdgeStyle;elbow=vertical;endArrow=classic;html=1;curved=0;rounded=0;endSize=8;startSize=8;exitX=-0.004;exitY=0.693;exitDx=0;exitDy=0;entryX=0;entryY=0.5;entryDx=0;entryDy=0;strokeColor=#9933FF;startArrow=classic;startFill=1;exitPerimeter=0;" edge="1" parent="1" source="lfwIpQtfmE1u0c_9Xs-n-4" target="lfwIpQtfmE1u0c_9Xs-n-2">
          <mxGeometry width="50" height="50" relative="1" as="geometry">
            <mxPoint x="-80" y="-250" as="sourcePoint" />
            <mxPoint x="-30" y="-300" as="targetPoint" />
            <Array as="points">
              <mxPoint x="110" y="80" />
              <mxPoint x="20" y="-20" />
            </Array>
          </mxGeometry>
        </mxCell>
        <mxCell id="lfwIpQtfmE1u0c_9Xs-n-16" value="" style="rounded=0;whiteSpace=wrap;html=1;strokeColor=#0000FF;" vertex="1" parent="1">
          <mxGeometry x="185" y="320" width="120" height="64" as="geometry" />
        </mxCell>
        <mxCell id="lfwIpQtfmE1u0c_9Xs-n-17" value="&lt;font face=&quot;Times New Roman&quot;&gt;keep alive&lt;/font&gt;" style="rounded=1;whiteSpace=wrap;html=1;" vertex="1" parent="1">
          <mxGeometry x="209" y="344" width="70" height="25" as="geometry" />
        </mxCell>
        <mxCell id="lfwIpQtfmE1u0c_9Xs-n-18" value="&lt;font face=&quot;Times New Roman&quot;&gt;&lt;b&gt;timer&lt;br&gt;&lt;/b&gt;&lt;/font&gt;" style="text;strokeColor=none;align=center;fillColor=none;html=1;verticalAlign=middle;whiteSpace=wrap;rounded=0;fontColor=#3333FF;" vertex="1" parent="1">
          <mxGeometry x="215" y="314" width="60" height="30" as="geometry" />
        </mxCell>
        <mxCell id="lfwIpQtfmE1u0c_9Xs-n-19" value="&lt;font face=&quot;Times New Roman&quot;&gt;thread pool&lt;/font&gt;" style="rounded=0;whiteSpace=wrap;html=1;strokeColor=#0000FF;" vertex="1" parent="1">
          <mxGeometry x="354" y="156" width="120" height="71" as="geometry" />
        </mxCell>
        <mxCell id="lfwIpQtfmE1u0c_9Xs-n-20" value="&lt;font color=&quot;#3333ff&quot;&gt;pb&lt;/font&gt;" style="rounded=0;whiteSpace=wrap;html=1;strokeColor=#000000;" vertex="1" parent="1">
          <mxGeometry x="186" y="246" width="120" height="24" as="geometry" />
        </mxCell>
        <mxCell id="lfwIpQtfmE1u0c_9Xs-n-21" value="&lt;font face=&quot;Times New Roman&quot; color=&quot;#33001a&quot;&gt;job status&lt;/font&gt;" style="rounded=0;whiteSpace=wrap;html=1;strokeColor=#0000FF;dashed=1;" vertex="1" parent="1">
          <mxGeometry x="500" y="116" width="120" height="24" as="geometry" />
        </mxCell>
        <mxCell id="lfwIpQtfmE1u0c_9Xs-n-22" value="&lt;font face=&quot;Times New Roman&quot; color=&quot;#33001a&quot;&gt;project status&lt;/font&gt;" style="rounded=0;whiteSpace=wrap;html=1;strokeColor=#0000FF;dashed=1;" vertex="1" parent="1">
          <mxGeometry x="500" y="156" width="120" height="24" as="geometry" />
        </mxCell>
        <mxCell id="lfwIpQtfmE1u0c_9Xs-n-23" value="&lt;font face=&quot;Times New Roman&quot; color=&quot;#33001a&quot;&gt;doe&lt;/font&gt;" style="rounded=0;whiteSpace=wrap;html=1;strokeColor=#0000FF;dashed=1;" vertex="1" parent="1">
          <mxGeometry x="500" y="197" width="120" height="24" as="geometry" />
        </mxCell>
        <mxCell id="lfwIpQtfmE1u0c_9Xs-n-24" value="&lt;font face=&quot;Times New Roman&quot; color=&quot;#33001a&quot;&gt;virtual nodes&lt;/font&gt;" style="rounded=0;whiteSpace=wrap;html=1;strokeColor=#0000FF;dashed=1;" vertex="1" parent="1">
          <mxGeometry x="500" y="239" width="120" height="24" as="geometry" />
        </mxCell>
        <mxCell id="lfwIpQtfmE1u0c_9Xs-n-25" value="&lt;font face=&quot;Times New Roman&quot; color=&quot;#33001a&quot;&gt;event message stream&lt;/font&gt;" style="rounded=0;whiteSpace=wrap;html=1;strokeColor=#0000FF;dashed=1;" vertex="1" parent="1">
          <mxGeometry x="480" y="280" width="150" height="24" as="geometry" />
        </mxCell>
        <mxCell id="lfwIpQtfmE1u0c_9Xs-n-26" value="&lt;font face=&quot;Times New Roman&quot; color=&quot;#33001a&quot;&gt;register&lt;/font&gt;" style="rounded=0;whiteSpace=wrap;html=1;strokeColor=#0000FF;dashed=1;" vertex="1" parent="1">
          <mxGeometry x="354" y="116" width="120" height="24" as="geometry" />
        </mxCell>
        <mxCell id="lfwIpQtfmE1u0c_9Xs-n-27" value="&lt;font face=&quot;Times New Roman&quot; color=&quot;#33001a&quot;&gt;unregister&lt;/font&gt;" style="rounded=0;whiteSpace=wrap;html=1;strokeColor=#0000FF;dashed=1;" vertex="1" parent="1">
          <mxGeometry x="354" y="245" width="120" height="24" as="geometry" />
        </mxCell>
        <mxCell id="lfwIpQtfmE1u0c_9Xs-n-28" value="" style="rounded=0;whiteSpace=wrap;html=1;strokeColor=#0000FF;" vertex="1" parent="1">
          <mxGeometry x="172" y="-188" width="170" height="144" as="geometry" />
        </mxCell>
        <mxCell id="lfwIpQtfmE1u0c_9Xs-n-29" value="&lt;font face=&quot;Times New Roman&quot;&gt;monitor preprocessor&lt;/font&gt;" style="rounded=1;whiteSpace=wrap;html=1;" vertex="1" parent="1">
          <mxGeometry x="179" y="-164" width="156" height="25" as="geometry" />
        </mxCell>
        <mxCell id="lfwIpQtfmE1u0c_9Xs-n-30" value="&lt;font face=&quot;Times New Roman&quot;&gt;&lt;b&gt;timer&lt;br&gt;&lt;/b&gt;&lt;/font&gt;" style="text;strokeColor=none;align=center;fillColor=none;html=1;verticalAlign=middle;whiteSpace=wrap;rounded=0;fontColor=#3333FF;" vertex="1" parent="1">
          <mxGeometry x="228" y="-194" width="60" height="30" as="geometry" />
        </mxCell>
        <mxCell id="lfwIpQtfmE1u0c_9Xs-n-31" value="&lt;font face=&quot;Times New Roman&quot;&gt;monitor asub&lt;/font&gt;" style="rounded=1;whiteSpace=wrap;html=1;" vertex="1" parent="1">
          <mxGeometry x="179" y="-124" width="156" height="25" as="geometry" />
        </mxCell>
        <mxCell id="lfwIpQtfmE1u0c_9Xs-n-32" value="&lt;font face=&quot;Times New Roman&quot;&gt;monitor acleanup&lt;/font&gt;" style="rounded=1;whiteSpace=wrap;html=1;" vertex="1" parent="1">
          <mxGeometry x="179" y="-85" width="156" height="25" as="geometry" />
        </mxCell>
        <mxCell id="lfwIpQtfmE1u0c_9Xs-n-33" value="" style="rounded=0;whiteSpace=wrap;html=1;strokeColor=#0000FF;" vertex="1" parent="1">
          <mxGeometry x="360" y="-312" width="120" height="134" as="geometry" />
        </mxCell>
        <mxCell id="lfwIpQtfmE1u0c_9Xs-n-34" value="&lt;font face=&quot;Times New Roman&quot;&gt;async stdout&lt;/font&gt;" style="rounded=1;whiteSpace=wrap;html=1;" vertex="1" parent="1">
          <mxGeometry x="384" y="-288" width="70" height="30" as="geometry" />
        </mxCell>
        <mxCell id="lfwIpQtfmE1u0c_9Xs-n-35" value="&lt;font face=&quot;Times New Roman&quot;&gt;&lt;b&gt;log&lt;br&gt;&lt;/b&gt;&lt;/font&gt;" style="text;strokeColor=none;align=center;fillColor=none;html=1;verticalAlign=middle;whiteSpace=wrap;rounded=0;fontColor=#3333FF;" vertex="1" parent="1">
          <mxGeometry x="390" y="-318" width="60" height="30" as="geometry" />
        </mxCell>
        <mxCell id="lfwIpQtfmE1u0c_9Xs-n-36" value="&lt;font face=&quot;Times New Roman&quot;&gt;async stderr&lt;/font&gt;" style="rounded=1;whiteSpace=wrap;html=1;" vertex="1" parent="1">
          <mxGeometry x="384" y="-248" width="70" height="25" as="geometry" />
        </mxCell>
        <mxCell id="lfwIpQtfmE1u0c_9Xs-n-37" value="&lt;font face=&quot;Times New Roman&quot;&gt;async log&lt;/font&gt;" style="rounded=1;whiteSpace=wrap;html=1;" vertex="1" parent="1">
          <mxGeometry x="385" y="-211" width="70" height="25" as="geometry" />
        </mxCell>
        <mxCell id="lfwIpQtfmE1u0c_9Xs-n-38" value="&lt;font face=&quot;Times New Roman&quot; color=&quot;#33001a&quot;&gt;add local/lsf/sge job&lt;/font&gt;" style="rounded=0;whiteSpace=wrap;html=1;strokeColor=#0000FF;dashed=1;" vertex="1" parent="1">
          <mxGeometry x="500" y="-310" width="120" height="24" as="geometry" />
        </mxCell>
        <mxCell id="lfwIpQtfmE1u0c_9Xs-n-39" value="&lt;font face=&quot;Times New Roman&quot; color=&quot;#33001a&quot;&gt;run project&lt;/font&gt;" style="rounded=0;whiteSpace=wrap;html=1;strokeColor=#0000FF;dashed=1;" vertex="1" parent="1">
          <mxGeometry x="500" y="-272" width="120" height="24" as="geometry" />
        </mxCell>
        <mxCell id="lfwIpQtfmE1u0c_9Xs-n-40" value="&lt;font face=&quot;Times New Roman&quot; color=&quot;#33001a&quot;&gt;abort project&lt;/font&gt;" style="rounded=0;whiteSpace=wrap;html=1;strokeColor=#0000FF;dashed=1;" vertex="1" parent="1">
          <mxGeometry x="500" y="-235" width="120" height="24" as="geometry" />
        </mxCell>
        <mxCell id="lfwIpQtfmE1u0c_9Xs-n-41" value="&lt;font face=&quot;Times New Roman&quot; color=&quot;#33001a&quot;&gt;abort local/lsf/sge job&lt;/font&gt;" style="rounded=0;whiteSpace=wrap;html=1;strokeColor=#0000FF;dashed=1;" vertex="1" parent="1">
          <mxGeometry x="500" y="-194" width="120" height="24" as="geometry" />
        </mxCell>
        <mxCell id="lfwIpQtfmE1u0c_9Xs-n-42" value="&lt;font face=&quot;Times New Roman&quot;&gt;thread pool&lt;/font&gt;" style="rounded=0;whiteSpace=wrap;html=1;strokeColor=#0000FF;" vertex="1" parent="1">
          <mxGeometry x="359" y="-160" width="120" height="24" as="geometry" />
        </mxCell>
        <mxCell id="lfwIpQtfmE1u0c_9Xs-n-43" value="&lt;a style=&quot;box-sizing: border-box; cursor: pointer; outline: none; -webkit-tap-highlight-color: transparent; line-height: 22.5px; font-weight: 600; text-align: start; background-color: rgb(255, 255, 255);&quot; class=&quot;color_pc_blue_text&quot; data-keyword=&quot;asynchronous event&quot;&gt;&lt;font color=&quot;#1a1a1a&quot; style=&quot;font-size: 12px;&quot; face=&quot;Times New Roman&quot;&gt;asynchronous event&lt;/font&gt;&lt;/a&gt;" style="rounded=0;whiteSpace=wrap;html=1;strokeColor=#0000FF;" vertex="1" parent="1">
          <mxGeometry x="359" y="-123" width="121" height="24" as="geometry" />
        </mxCell>
        <mxCell id="lfwIpQtfmE1u0c_9Xs-n-44" value="" style="rounded=0;whiteSpace=wrap;html=1;strokeWidth=2;fillColor=#ffe6cc;strokeColor=#d79b00;" vertex="1" parent="1">
          <mxGeometry x="840" y="-231.5" width="560" height="688.5" as="geometry" />
        </mxCell>
        <mxCell id="lfwIpQtfmE1u0c_9Xs-n-45" value="&lt;font style=&quot;font-size: 36px;&quot; color=&quot;#ff3333&quot; face=&quot;Times New Roman&quot;&gt;&lt;b&gt;asub: amedac sub&lt;/b&gt;&lt;/font&gt;" style="text;strokeColor=none;align=center;fillColor=none;html=1;verticalAlign=middle;whiteSpace=wrap;rounded=0;" vertex="1" parent="1">
          <mxGeometry x="989" y="-225.5" width="279" height="30" as="geometry" />
        </mxCell>
        <mxCell id="lfwIpQtfmE1u0c_9Xs-n-46" value="rpc" style="edgeStyle=elbowEdgeStyle;elbow=horizontal;endArrow=classic;html=1;curved=0;rounded=0;endSize=8;startSize=8;exitX=1.007;exitY=0.819;exitDx=0;exitDy=0;strokeColor=#9933FF;startArrow=classic;startFill=1;exitPerimeter=0;" edge="1" parent="1">
          <mxGeometry width="50" height="50" relative="1" as="geometry">
            <mxPoint x="640.0000000000001" y="309.21000000000004" as="sourcePoint" />
            <mxPoint x="840" y="310" as="targetPoint" />
            <Array as="points">
              <mxPoint x="726.64" y="162.55999999999995" />
              <mxPoint x="756.64" y="35.059999999999945" />
            </Array>
          </mxGeometry>
        </mxCell>
        <mxCell id="lfwIpQtfmE1u0c_9Xs-n-47" value="" style="rounded=0;whiteSpace=wrap;html=1;" vertex="1" parent="1">
          <mxGeometry x="851" y="-134" width="150" height="170" as="geometry" />
        </mxCell>
        <mxCell id="lfwIpQtfmE1u0c_9Xs-n-48" value="" style="rounded=0;whiteSpace=wrap;html=1;strokeColor=#0000FF;" vertex="1" parent="1">
          <mxGeometry x="866" y="-128" width="120" height="110" as="geometry" />
        </mxCell>
        <mxCell id="lfwIpQtfmE1u0c_9Xs-n-49" value="&lt;font face=&quot;Times New Roman&quot;&gt;rpc client&lt;/font&gt;" style="rounded=1;whiteSpace=wrap;html=1;" vertex="1" parent="1">
          <mxGeometry x="890" y="-104" width="70" height="25" as="geometry" />
        </mxCell>
        <mxCell id="lfwIpQtfmE1u0c_9Xs-n-50" value="&lt;font face=&quot;Times New Roman&quot;&gt;&lt;b&gt;rpc&lt;br&gt;&lt;/b&gt;&lt;/font&gt;" style="text;strokeColor=none;align=center;fillColor=none;html=1;verticalAlign=middle;whiteSpace=wrap;rounded=0;fontColor=#3333FF;" vertex="1" parent="1">
          <mxGeometry x="896" y="-134" width="60" height="30" as="geometry" />
        </mxCell>
        <mxCell id="lfwIpQtfmE1u0c_9Xs-n-51" value="&lt;font face=&quot;Times New Roman&quot;&gt;rpc server&lt;/font&gt;" style="rounded=1;whiteSpace=wrap;html=1;" vertex="1" parent="1">
          <mxGeometry x="890" y="-64" width="70" height="25" as="geometry" />
        </mxCell>
        <mxCell id="lfwIpQtfmE1u0c_9Xs-n-52" value="&lt;font color=&quot;#3333ff&quot;&gt;pb&lt;/font&gt;" style="rounded=0;whiteSpace=wrap;html=1;strokeColor=#0000FF;" vertex="1" parent="1">
          <mxGeometry x="866" y="-3" width="120" height="24" as="geometry" />
        </mxCell>
        <mxCell id="lfwIpQtfmE1u0c_9Xs-n-53" value="" style="rounded=0;whiteSpace=wrap;html=1;strokeColor=#0000FF;" vertex="1" parent="1">
          <mxGeometry x="1471" y="291" width="120" height="110" as="geometry" />
        </mxCell>
        <mxCell id="lfwIpQtfmE1u0c_9Xs-n-54" value="&lt;font face=&quot;Times New Roman&quot;&gt;lsf cluster&lt;/font&gt;" style="rounded=1;whiteSpace=wrap;html=1;" vertex="1" parent="1">
          <mxGeometry x="1495" y="315" width="70" height="25" as="geometry" />
        </mxCell>
        <mxCell id="lfwIpQtfmE1u0c_9Xs-n-55" value="&lt;font face=&quot;Times New Roman&quot;&gt;&lt;b&gt;cluster&lt;br&gt;&lt;/b&gt;&lt;/font&gt;" style="text;strokeColor=none;align=center;fillColor=none;html=1;verticalAlign=middle;whiteSpace=wrap;rounded=0;fontColor=#3333FF;" vertex="1" parent="1">
          <mxGeometry x="1495.5" y="286" width="71" height="30" as="geometry" />
        </mxCell>
        <mxCell id="lfwIpQtfmE1u0c_9Xs-n-56" value="&lt;font face=&quot;Times New Roman&quot;&gt;sge cluster&lt;/font&gt;" style="rounded=1;whiteSpace=wrap;html=1;" vertex="1" parent="1">
          <mxGeometry x="1495" y="355" width="70" height="25" as="geometry" />
        </mxCell>
        <mxCell id="lfwIpQtfmE1u0c_9Xs-n-57" value="" style="rounded=0;whiteSpace=wrap;html=1;strokeColor=#0000FF;" vertex="1" parent="1">
          <mxGeometry x="1031" y="-47" width="120" height="110" as="geometry" />
        </mxCell>
        <mxCell id="lfwIpQtfmE1u0c_9Xs-n-58" value="&lt;font face=&quot;Times New Roman&quot;&gt;depth_first&lt;/font&gt;" style="rounded=1;whiteSpace=wrap;html=1;" vertex="1" parent="1">
          <mxGeometry x="1055" y="-23" width="70" height="25" as="geometry" />
        </mxCell>
        <mxCell id="lfwIpQtfmE1u0c_9Xs-n-59" value="&lt;font face=&quot;Times New Roman&quot;&gt;&lt;b&gt;schedule mode&amp;nbsp;&lt;br&gt;&lt;/b&gt;&lt;/font&gt;" style="text;strokeColor=none;align=center;fillColor=none;html=1;verticalAlign=middle;whiteSpace=wrap;rounded=0;fontColor=#3333FF;" vertex="1" parent="1">
          <mxGeometry x="1044" y="-53" width="100" height="30" as="geometry" />
        </mxCell>
        <mxCell id="lfwIpQtfmE1u0c_9Xs-n-60" value="&lt;font face=&quot;Times New Roman&quot;&gt;breadth_first&lt;/font&gt;" style="rounded=1;whiteSpace=wrap;html=1;" vertex="1" parent="1">
          <mxGeometry x="1055" y="17" width="70" height="25" as="geometry" />
        </mxCell>
        <mxCell id="lfwIpQtfmE1u0c_9Xs-n-61" value="" style="rounded=0;whiteSpace=wrap;html=1;strokeColor=#0000FF;" vertex="1" parent="1">
          <mxGeometry x="851" y="53" width="120" height="104" as="geometry" />
        </mxCell>
        <mxCell id="lfwIpQtfmE1u0c_9Xs-n-62" value="&lt;font face=&quot;Times New Roman&quot;&gt;async stdout&lt;/font&gt;" style="rounded=1;whiteSpace=wrap;html=1;" vertex="1" parent="1">
          <mxGeometry x="875" y="77" width="70" height="30" as="geometry" />
        </mxCell>
        <mxCell id="lfwIpQtfmE1u0c_9Xs-n-63" value="&lt;font face=&quot;Times New Roman&quot;&gt;&lt;b&gt;log&lt;br&gt;&lt;/b&gt;&lt;/font&gt;" style="text;strokeColor=none;align=center;fillColor=none;html=1;verticalAlign=middle;whiteSpace=wrap;rounded=0;fontColor=#3333FF;" vertex="1" parent="1">
          <mxGeometry x="881" y="47" width="60" height="30" as="geometry" />
        </mxCell>
        <mxCell id="lfwIpQtfmE1u0c_9Xs-n-64" value="&lt;font face=&quot;Times New Roman&quot;&gt;async stderr&lt;/font&gt;" style="rounded=1;whiteSpace=wrap;html=1;" vertex="1" parent="1">
          <mxGeometry x="875" y="117" width="70" height="25" as="geometry" />
        </mxCell>
        <mxCell id="lfwIpQtfmE1u0c_9Xs-n-65" value="&lt;font face=&quot;Times New Roman&quot; color=&quot;#33001a&quot;&gt;asub info&lt;/font&gt;" style="rounded=0;whiteSpace=wrap;html=1;strokeColor=#0000FF;dashed=1;" vertex="1" parent="1">
          <mxGeometry x="354" y="285" width="116" height="24" as="geometry" />
        </mxCell>
        <mxCell id="lfwIpQtfmE1u0c_9Xs-n-66" value="&lt;ul style=&quot;box-sizing: border-box; margin: 0px; padding: 0px; color: rgb(42, 43, 46); font-size: 14px; text-align: start; background-color: rgb(255, 255, 255);&quot;&gt;&lt;li style=&quot;box-sizing: border-box; margin: 0px; padding: 0px; list-style: none;&quot;&gt;&lt;p style=&quot;box-sizing: border-box; margin: 0px 0px 2px; padding: 0px; line-height: 21px; display: inline; font-size: var(--main-font-size);&quot; class=&quot;src grammarSection&quot; data-group=&quot;1-1&quot;&gt;&lt;font face=&quot;Times New Roman&quot;&gt;read/write file locker&lt;/font&gt;&lt;/p&gt;&lt;/li&gt;&lt;/ul&gt;" style="rounded=0;whiteSpace=wrap;html=1;strokeColor=#0000FF;" vertex="1" parent="1">
          <mxGeometry x="354" y="331.5" width="276" height="24" as="geometry" />
        </mxCell>
        <mxCell id="lfwIpQtfmE1u0c_9Xs-n-67" value="" style="rounded=0;whiteSpace=wrap;html=1;strokeColor=#0000FF;" vertex="1" parent="1">
          <mxGeometry x="1032" y="-181" width="120" height="110" as="geometry" />
        </mxCell>
        <mxCell id="lfwIpQtfmE1u0c_9Xs-n-68" value="&lt;font face=&quot;Times New Roman&quot;&gt;parser profile&lt;/font&gt;" style="rounded=1;whiteSpace=wrap;html=1;" vertex="1" parent="1">
          <mxGeometry x="1056" y="-157" width="76" height="25" as="geometry" />
        </mxCell>
        <mxCell id="lfwIpQtfmE1u0c_9Xs-n-69" value="&lt;font face=&quot;Times New Roman&quot;&gt;&lt;b&gt;import&lt;br&gt;&lt;/b&gt;&lt;/font&gt;" style="text;strokeColor=none;align=center;fillColor=none;html=1;verticalAlign=middle;whiteSpace=wrap;rounded=0;fontColor=#3333FF;" vertex="1" parent="1">
          <mxGeometry x="1045" y="-187" width="100" height="30" as="geometry" />
        </mxCell>
        <mxCell id="lfwIpQtfmE1u0c_9Xs-n-70" value="&lt;font face=&quot;Times New Roman&quot;&gt;parser dag&lt;/font&gt;" style="rounded=1;whiteSpace=wrap;html=1;" vertex="1" parent="1">
          <mxGeometry x="1056" y="-117" width="76" height="25" as="geometry" />
        </mxCell>
        <mxCell id="lfwIpQtfmE1u0c_9Xs-n-71" value="" style="rounded=0;whiteSpace=wrap;html=1;strokeColor=#0000FF;" vertex="1" parent="1">
          <mxGeometry x="1184" y="-183.5" width="120" height="130.5" as="geometry" />
        </mxCell>
        <mxCell id="lfwIpQtfmE1u0c_9Xs-n-72" value="&lt;font face=&quot;Times New Roman&quot;&gt;local&lt;/font&gt;" style="rounded=1;whiteSpace=wrap;html=1;" vertex="1" parent="1">
          <mxGeometry x="1208" y="-163" width="70" height="28.5" as="geometry" />
        </mxCell>
        <mxCell id="lfwIpQtfmE1u0c_9Xs-n-73" value="&lt;font face=&quot;Times New Roman&quot;&gt;&lt;b&gt;job manager&lt;br&gt;&lt;/b&gt;&lt;/font&gt;" style="text;strokeColor=none;align=center;fillColor=none;html=1;verticalAlign=middle;whiteSpace=wrap;rounded=0;fontColor=#3333FF;" vertex="1" parent="1">
          <mxGeometry x="1197" y="-189.5" width="100" height="30" as="geometry" />
        </mxCell>
        <mxCell id="lfwIpQtfmE1u0c_9Xs-n-74" value="&lt;font face=&quot;Times New Roman&quot;&gt;lsf&lt;/font&gt;" style="rounded=1;whiteSpace=wrap;html=1;" vertex="1" parent="1">
          <mxGeometry x="1208" y="-119.5" width="70" height="25" as="geometry" />
        </mxCell>
        <mxCell id="lfwIpQtfmE1u0c_9Xs-n-75" value="&lt;font face=&quot;Times New Roman&quot;&gt;sge&lt;/font&gt;" style="rounded=1;whiteSpace=wrap;html=1;" vertex="1" parent="1">
          <mxGeometry x="1208" y="-83" width="70" height="25" as="geometry" />
        </mxCell>
        <mxCell id="lfwIpQtfmE1u0c_9Xs-n-76" value="" style="rounded=0;whiteSpace=wrap;html=1;strokeColor=#0000FF;" vertex="1" parent="1">
          <mxGeometry x="1183" y="104.5" width="170" height="130.5" as="geometry" />
        </mxCell>
        <mxCell id="lfwIpQtfmE1u0c_9Xs-n-77" value="&lt;font face=&quot;Times New Roman&quot;&gt;dump job staus&lt;/font&gt;" style="rounded=1;whiteSpace=wrap;html=1;" vertex="1" parent="1">
          <mxGeometry x="1207" y="125" width="116" height="28.5" as="geometry" />
        </mxCell>
        <mxCell id="lfwIpQtfmE1u0c_9Xs-n-78" value="&lt;font face=&quot;Times New Roman&quot;&gt;&lt;b&gt;output&lt;br&gt;&lt;/b&gt;&lt;/font&gt;" style="text;strokeColor=none;align=center;fillColor=none;html=1;verticalAlign=middle;whiteSpace=wrap;rounded=0;fontColor=#3333FF;" vertex="1" parent="1">
          <mxGeometry x="1218" y="98.5" width="100" height="30" as="geometry" />
        </mxCell>
        <mxCell id="lfwIpQtfmE1u0c_9Xs-n-79" value="&lt;font face=&quot;Times New Roman&quot;&gt;dump project status&lt;/font&gt;" style="rounded=1;whiteSpace=wrap;html=1;" vertex="1" parent="1">
          <mxGeometry x="1207" y="168.5" width="116" height="28.5" as="geometry" />
        </mxCell>
        <mxCell id="lfwIpQtfmE1u0c_9Xs-n-80" value="&lt;font face=&quot;Times New Roman&quot;&gt;dump avars&lt;/font&gt;" style="rounded=1;whiteSpace=wrap;html=1;" vertex="1" parent="1">
          <mxGeometry x="1207" y="208.5" width="116" height="21.5" as="geometry" />
        </mxCell>
        <mxCell id="lfwIpQtfmE1u0c_9Xs-n-81" value="&lt;table style=&quot;border-collapse:&lt;br/&gt; collapse;width:303pt&quot; width=&quot;404&quot; cellspacing=&quot;0&quot; cellpadding=&quot;0&quot; border=&quot;0&quot;&gt;&lt;tbody&gt;&lt;tr style=&quot;height:14.0pt&quot; height=&quot;19&quot;&gt;&lt;br/&gt;  &lt;td style=&quot;height:14.0pt;width:303pt&quot; width=&quot;404&quot; class=&quot;xl65&quot; height=&quot;19&quot;&gt;Protecting&lt;br/&gt;  Executed Nodes&lt;/td&gt;&lt;/tr&gt;&lt;/tbody&gt;&lt;/table&gt;" style="rounded=0;whiteSpace=wrap;html=1;strokeColor=#0000FF;" vertex="1" parent="1">
          <mxGeometry x="1022" y="401" width="192" height="50" as="geometry" />
        </mxCell>
        <mxCell id="lfwIpQtfmE1u0c_9Xs-n-82" value="" style="rounded=0;whiteSpace=wrap;html=1;strokeColor=#0000FF;" vertex="1" parent="1">
          <mxGeometry x="1183" y="-38.25" width="170" height="130.5" as="geometry" />
        </mxCell>
        <mxCell id="lfwIpQtfmE1u0c_9Xs-n-83" value="&lt;font face=&quot;Times New Roman&quot;&gt;create local/lsf/sge job&lt;/font&gt;" style="rounded=1;whiteSpace=wrap;html=1;" vertex="1" parent="1">
          <mxGeometry x="1202" y="-17.75" width="133" height="28.5" as="geometry" />
        </mxCell>
        <mxCell id="lfwIpQtfmE1u0c_9Xs-n-84" value="&lt;font face=&quot;Times New Roman&quot;&gt;&lt;b&gt;action&lt;br&gt;&lt;/b&gt;&lt;/font&gt;" style="text;strokeColor=none;align=center;fillColor=none;html=1;verticalAlign=middle;whiteSpace=wrap;rounded=0;fontColor=#3333FF;" vertex="1" parent="1">
          <mxGeometry x="1218" y="-44.25" width="100" height="30" as="geometry" />
        </mxCell>
        <mxCell id="lfwIpQtfmE1u0c_9Xs-n-85" value="&lt;font face=&quot;Times New Roman&quot;&gt;abort local/lsf/sge job&lt;/font&gt;" style="rounded=1;whiteSpace=wrap;html=1;" vertex="1" parent="1">
          <mxGeometry x="1207" y="25.75" width="116" height="25" as="geometry" />
        </mxCell>
        <mxCell id="lfwIpQtfmE1u0c_9Xs-n-86" value="&lt;font face=&quot;Times New Roman&quot;&gt;abort project&lt;/font&gt;" style="rounded=1;whiteSpace=wrap;html=1;" vertex="1" parent="1">
          <mxGeometry x="1207" y="65.75" width="116" height="21.5" as="geometry" />
        </mxCell>
        <mxCell id="lfwIpQtfmE1u0c_9Xs-n-87" value="" style="rounded=0;whiteSpace=wrap;html=1;strokeColor=#0000FF;" vertex="1" parent="1">
          <mxGeometry x="1184" y="267" width="170" height="127" as="geometry" />
        </mxCell>
        <mxCell id="lfwIpQtfmE1u0c_9Xs-n-88" value="&lt;font face=&quot;Times New Roman&quot;&gt;preprocessor first stage&lt;/font&gt;" style="rounded=1;whiteSpace=wrap;html=1;" vertex="1" parent="1">
          <mxGeometry x="1208" y="291" width="126" height="28.5" as="geometry" />
        </mxCell>
        <mxCell id="lfwIpQtfmE1u0c_9Xs-n-89" value="&lt;font face=&quot;Times New Roman&quot;&gt;&lt;b&gt;utilities&lt;/b&gt;&lt;br&gt;&lt;/font&gt;" style="text;strokeColor=none;align=center;fillColor=none;html=1;verticalAlign=middle;whiteSpace=wrap;rounded=0;fontColor=#3333FF;" vertex="1" parent="1">
          <mxGeometry x="1219" y="262.5" width="100" height="30" as="geometry" />
        </mxCell>
        <mxCell id="lfwIpQtfmE1u0c_9Xs-n-90" value="&lt;font face=&quot;Times New Roman&quot;&gt;ajob&lt;/font&gt;" style="rounded=1;whiteSpace=wrap;html=1;" vertex="1" parent="1">
          <mxGeometry x="1208" y="340.5" width="116" height="21.5" as="geometry" />
        </mxCell>
        <mxCell id="lfwIpQtfmE1u0c_9Xs-n-91" value="" style="rounded=0;whiteSpace=wrap;html=1;strokeColor=#0000FF;" vertex="1" parent="1">
          <mxGeometry x="1008" y="87.5" width="150" height="64" as="geometry" />
        </mxCell>
        <mxCell id="lfwIpQtfmE1u0c_9Xs-n-92" value="&lt;font face=&quot;Times New Roman&quot;&gt;async message stream&lt;/font&gt;" style="rounded=1;whiteSpace=wrap;html=1;" vertex="1" parent="1">
          <mxGeometry x="1022" y="115" width="126" height="28.5" as="geometry" />
        </mxCell>
        <mxCell id="lfwIpQtfmE1u0c_9Xs-n-93" value="&lt;font face=&quot;Times New Roman&quot;&gt;&lt;b&gt;async event&amp;nbsp;&lt;br&gt;&lt;/b&gt;&lt;/font&gt;" style="text;strokeColor=none;align=center;fillColor=none;html=1;verticalAlign=middle;whiteSpace=wrap;rounded=0;fontColor=#3333FF;" vertex="1" parent="1">
          <mxGeometry x="1033" y="81.5" width="100" height="30" as="geometry" />
        </mxCell>
        <mxCell id="lfwIpQtfmE1u0c_9Xs-n-94" value="" style="rounded=0;whiteSpace=wrap;html=1;strokeColor=#3333FF;" vertex="1" parent="1">
          <mxGeometry x="851" y="188" width="259" height="202" as="geometry" />
        </mxCell>
        <mxCell id="lfwIpQtfmE1u0c_9Xs-n-95" value="" style="rounded=0;whiteSpace=wrap;html=1;dashed=1;" vertex="1" parent="1">
          <mxGeometry x="866" y="216" width="120" height="110" as="geometry" />
        </mxCell>
        <mxCell id="lfwIpQtfmE1u0c_9Xs-n-96" value="&lt;font face=&quot;Times New Roman&quot;&gt;lsf&lt;/font&gt;" style="rounded=1;whiteSpace=wrap;html=1;" vertex="1" parent="1">
          <mxGeometry x="881" y="226" width="90" height="30" as="geometry" />
        </mxCell>
        <mxCell id="lfwIpQtfmE1u0c_9Xs-n-97" value="&lt;font face=&quot;Times New Roman&quot;&gt;sge&lt;/font&gt;" style="rounded=1;whiteSpace=wrap;html=1;" vertex="1" parent="1">
          <mxGeometry x="881" y="286" width="90" height="30" as="geometry" />
        </mxCell>
        <mxCell id="lfwIpQtfmE1u0c_9Xs-n-98" value="&lt;font style=&quot;&quot; face=&quot;Times New Roman&quot;&gt;&lt;font style=&quot;font-size: 10px;&quot;&gt;GetJobStatus&lt;/font&gt;&lt;span style=&quot;font-size: 6px;&quot;&gt;:bjobs/qstat&lt;/span&gt;&lt;br&gt;&lt;/font&gt;&lt;ul style=&quot;box-sizing: border-box; margin: 0px; padding: 0px; color: rgb(42, 43, 46); text-align: start; background-color: rgb(255, 255, 255);&quot;&gt;&lt;li style=&quot;box-sizing: border-box; margin: 0px; padding: 0px; list-style: none;&quot;&gt;&lt;p style=&quot;box-sizing: border-box; margin: 0px 0px 2px; padding: 0px; line-height: 21px; display: inline;&quot; class=&quot;src grammarSection&quot; data-group=&quot;1-1&quot;&gt;&lt;font style=&quot;font-size: 6px;&quot; face=&quot;Times New Roman&quot;&gt;Polling time: 1S&lt;/font&gt;&lt;/p&gt;&lt;/li&gt;&lt;/ul&gt;" style="text;strokeColor=none;align=center;fillColor=none;html=1;verticalAlign=middle;whiteSpace=wrap;rounded=0;" vertex="1" parent="1">
          <mxGeometry x="961" y="260.5" width="160" height="30" as="geometry" />
        </mxCell>
        <mxCell id="lfwIpQtfmE1u0c_9Xs-n-99" value="&lt;font face=&quot;Times New Roman&quot;&gt;local&lt;/font&gt;" style="rounded=1;whiteSpace=wrap;html=1;" vertex="1" parent="1">
          <mxGeometry x="881" y="350" width="90" height="30" as="geometry" />
        </mxCell>
        <mxCell id="lfwIpQtfmE1u0c_9Xs-n-100" value="&lt;font style=&quot;font-size: 12px;&quot; face=&quot;Times New Roman&quot;&gt;GetJobStatus:waitpid&lt;br&gt;&lt;/font&gt;&lt;ul style=&quot;box-sizing: border-box; margin: 0px; padding: 0px; color: rgb(42, 43, 46); text-align: start; background-color: rgb(255, 255, 255);&quot;&gt;&lt;li style=&quot;box-sizing: border-box; margin: 0px; padding: 0px; list-style: none;&quot;&gt;&lt;p style=&quot;box-sizing: border-box; margin: 0px 0px 2px; padding: 0px; line-height: 21px; display: inline;&quot; class=&quot;src grammarSection&quot; data-group=&quot;1-1&quot;&gt;&lt;font style=&quot;font-size: 12px;&quot; face=&quot;Times New Roman&quot;&gt;Polling time：1S&lt;/font&gt;&lt;/p&gt;&lt;/li&gt;&lt;/ul&gt;" style="text;strokeColor=none;align=center;fillColor=none;html=1;verticalAlign=middle;whiteSpace=wrap;rounded=0;rotation=0;" vertex="1" parent="1">
          <mxGeometry x="961" y="350" width="160" height="30" as="geometry" />
        </mxCell>
        <mxCell id="lfwIpQtfmE1u0c_9Xs-n-101" value="&lt;font face=&quot;Times New Roman&quot;&gt;&lt;b&gt;timer&lt;br&gt;&lt;/b&gt;&lt;/font&gt;" style="text;strokeColor=none;align=center;fillColor=none;html=1;verticalAlign=middle;whiteSpace=wrap;rounded=0;fontColor=#3333FF;" vertex="1" parent="1">
          <mxGeometry x="876" y="187" width="100" height="30" as="geometry" />
        </mxCell>
        <mxCell id="lfwIpQtfmE1u0c_9Xs-n-102" value="" style="edgeStyle=elbowEdgeStyle;elbow=horizontal;endArrow=classic;html=1;curved=0;rounded=0;endSize=8;startSize=8;strokeColor=#9933FF;startArrow=classic;startFill=1;exitX=1.001;exitY=0.84;exitDx=0;exitDy=0;entryX=0;entryY=0.5;entryDx=0;entryDy=0;exitPerimeter=0;" edge="1" parent="1" source="lfwIpQtfmE1u0c_9Xs-n-44" target="lfwIpQtfmE1u0c_9Xs-n-53">
          <mxGeometry width="50" height="50" relative="1" as="geometry">
            <mxPoint x="1060" y="780" as="sourcePoint" />
            <mxPoint x="1180" y="830" as="targetPoint" />
            <Array as="points">
              <mxPoint x="1440" y="364" />
              <mxPoint x="1328" y="720.5" />
            </Array>
          </mxGeometry>
        </mxCell>
        <mxCell id="lfwIpQtfmE1u0c_9Xs-n-103" value="" style="rounded=0;whiteSpace=wrap;html=1;strokeWidth=2;fillColor=#d5e8d4;strokeColor=#82b366;" vertex="1" parent="1">
          <mxGeometry x="840" y="-619.5" width="560" height="342.5" as="geometry" />
        </mxCell>
        <mxCell id="lfwIpQtfmE1u0c_9Xs-n-104" value="&lt;font style=&quot;font-size: 36px;&quot; face=&quot;Times New Roman&quot; color=&quot;#ff3333&quot;&gt;&lt;b&gt;app: amedac preprocessor&lt;/b&gt;&lt;/font&gt;" style="text;strokeColor=none;align=center;fillColor=none;html=1;verticalAlign=middle;whiteSpace=wrap;rounded=0;" vertex="1" parent="1">
          <mxGeometry x="896" y="-608" width="452" height="30" as="geometry" />
        </mxCell>
        <mxCell id="lfwIpQtfmE1u0c_9Xs-n-105" value="" style="rounded=0;whiteSpace=wrap;html=1;" vertex="1" parent="1">
          <mxGeometry x="851" y="-560" width="150" height="115" as="geometry" />
        </mxCell>
        <mxCell id="lfwIpQtfmE1u0c_9Xs-n-106" value="" style="rounded=0;whiteSpace=wrap;html=1;strokeColor=#0000FF;" vertex="1" parent="1">
          <mxGeometry x="866" y="-554" width="120" height="59" as="geometry" />
        </mxCell>
        <mxCell id="lfwIpQtfmE1u0c_9Xs-n-107" value="&lt;font face=&quot;Times New Roman&quot;&gt;rpc client&lt;/font&gt;" style="rounded=1;whiteSpace=wrap;html=1;" vertex="1" parent="1">
          <mxGeometry x="890" y="-530" width="70" height="25" as="geometry" />
        </mxCell>
        <mxCell id="lfwIpQtfmE1u0c_9Xs-n-108" value="&lt;font face=&quot;Times New Roman&quot;&gt;&lt;b&gt;rpc&lt;br&gt;&lt;/b&gt;&lt;/font&gt;" style="text;strokeColor=none;align=center;fillColor=none;html=1;verticalAlign=middle;whiteSpace=wrap;rounded=0;fontColor=#3333FF;" vertex="1" parent="1">
          <mxGeometry x="896" y="-560" width="60" height="30" as="geometry" />
        </mxCell>
        <mxCell id="lfwIpQtfmE1u0c_9Xs-n-109" value="&lt;font face=&quot;Times New Roman&quot; color=&quot;#3333ff&quot;&gt;pb&lt;/font&gt;" style="rounded=0;whiteSpace=wrap;html=1;strokeColor=#0000FF;" vertex="1" parent="1">
          <mxGeometry x="866" y="-484" width="120" height="24" as="geometry" />
        </mxCell>
        <mxCell id="lfwIpQtfmE1u0c_9Xs-n-110" value="" style="rounded=0;whiteSpace=wrap;html=1;strokeColor=#0000FF;" vertex="1" parent="1">
          <mxGeometry x="869" y="-426" width="120" height="104" as="geometry" />
        </mxCell>
        <mxCell id="lfwIpQtfmE1u0c_9Xs-n-111" value="&lt;font face=&quot;Times New Roman&quot;&gt;async stdout&lt;/font&gt;" style="rounded=1;whiteSpace=wrap;html=1;" vertex="1" parent="1">
          <mxGeometry x="893" y="-402" width="70" height="30" as="geometry" />
        </mxCell>
        <mxCell id="lfwIpQtfmE1u0c_9Xs-n-112" value="&lt;font face=&quot;Times New Roman&quot;&gt;&lt;b&gt;log&lt;br&gt;&lt;/b&gt;&lt;/font&gt;" style="text;strokeColor=none;align=center;fillColor=none;html=1;verticalAlign=middle;whiteSpace=wrap;rounded=0;fontColor=#3333FF;" vertex="1" parent="1">
          <mxGeometry x="899" y="-432" width="60" height="30" as="geometry" />
        </mxCell>
        <mxCell id="lfwIpQtfmE1u0c_9Xs-n-113" value="&lt;font face=&quot;Times New Roman&quot;&gt;async stderr&lt;/font&gt;" style="rounded=1;whiteSpace=wrap;html=1;" vertex="1" parent="1">
          <mxGeometry x="893" y="-362" width="70" height="25" as="geometry" />
        </mxCell>
        <mxCell id="lfwIpQtfmE1u0c_9Xs-n-114" value="" style="rounded=0;whiteSpace=wrap;html=1;strokeColor=#0000FF;" vertex="1" parent="1">
          <mxGeometry x="1030" y="-366" width="150" height="64" as="geometry" />
        </mxCell>
        <mxCell id="lfwIpQtfmE1u0c_9Xs-n-115" value="&lt;font face=&quot;Times New Roman&quot;&gt;async message stream&lt;/font&gt;" style="rounded=1;whiteSpace=wrap;html=1;" vertex="1" parent="1">
          <mxGeometry x="1044" y="-338.5" width="126" height="28.5" as="geometry" />
        </mxCell>
        <mxCell id="lfwIpQtfmE1u0c_9Xs-n-116" value="&lt;font face=&quot;Times New Roman&quot;&gt;&lt;b&gt;async event&amp;nbsp;&lt;br&gt;&lt;/b&gt;&lt;/font&gt;" style="text;strokeColor=none;align=center;fillColor=none;html=1;verticalAlign=middle;whiteSpace=wrap;rounded=0;fontColor=#3333FF;" vertex="1" parent="1">
          <mxGeometry x="1055" y="-372" width="100" height="30" as="geometry" />
        </mxCell>
        <mxCell id="lfwIpQtfmE1u0c_9Xs-n-117" style="edgeStyle=orthogonalEdgeStyle;rounded=0;orthogonalLoop=1;jettySize=auto;html=1;exitX=0.5;exitY=1;exitDx=0;exitDy=0;" edge="1" parent="1" source="lfwIpQtfmE1u0c_9Xs-n-106" target="lfwIpQtfmE1u0c_9Xs-n-106">
          <mxGeometry relative="1" as="geometry" />
        </mxCell>
        <mxCell id="lfwIpQtfmE1u0c_9Xs-n-118" value="&lt;font face=&quot;Times New Roman&quot; color=&quot;#0000ff&quot;&gt;preprocess&lt;/font&gt;" style="rounded=0;whiteSpace=wrap;html=1;strokeColor=#0000FF;" vertex="1" parent="1">
          <mxGeometry x="1039" y="-489" width="126" height="57.5" as="geometry" />
        </mxCell>
        <mxCell id="lfwIpQtfmE1u0c_9Xs-n-119" value="&lt;font face=&quot;Times New Roman&quot; color=&quot;#3333ff&quot;&gt;preprecess node&lt;/font&gt;" style="rounded=0;whiteSpace=wrap;html=1;strokeColor=#0000FF;dashed=1;" vertex="1" parent="1">
          <mxGeometry x="1205" y="-542.5" width="170" height="40" as="geometry" />
        </mxCell>
        <mxCell id="lfwIpQtfmE1u0c_9Xs-n-120" value="&lt;font face=&quot;Times New Roman&quot; color=&quot;#3333ff&quot;&gt;preprecess first stage&lt;/font&gt;" style="rounded=0;whiteSpace=wrap;html=1;strokeColor=#0000FF;dashed=1;" vertex="1" parent="1">
          <mxGeometry x="1205" y="-488" width="170" height="40" as="geometry" />
        </mxCell>
        <mxCell id="lfwIpQtfmE1u0c_9Xs-n-121" value="&lt;font face=&quot;Times New Roman&quot; color=&quot;#3333ff&quot;&gt;preprocess project&lt;/font&gt;" style="rounded=0;whiteSpace=wrap;html=1;strokeColor=#0000FF;dashed=1;" vertex="1" parent="1">
          <mxGeometry x="1205" y="-427.5" width="170" height="40" as="geometry" />
        </mxCell>
        <mxCell id="lfwIpQtfmE1u0c_9Xs-n-122" value="" style="edgeStyle=elbowEdgeStyle;elbow=horizontal;endArrow=classic;html=1;curved=0;rounded=0;endSize=8;startSize=8;exitX=1;exitY=0.5;exitDx=0;exitDy=0;strokeColor=#9933FF;startArrow=none;startFill=0;entryX=-0.002;entryY=0.068;entryDx=0;entryDy=0;entryPerimeter=0;" edge="1" parent="1" source="lfwIpQtfmE1u0c_9Xs-n-4" target="lfwIpQtfmE1u0c_9Xs-n-44">
          <mxGeometry width="50" height="50" relative="1" as="geometry">
            <mxPoint x="600" y="-27.5" as="sourcePoint" />
            <mxPoint x="830" y="-185" as="targetPoint" />
            <Array as="points">
              <mxPoint x="720" y="-200" />
            </Array>
          </mxGeometry>
        </mxCell>
        <mxCell id="lfwIpQtfmE1u0c_9Xs-n-123" value="call" style="edgeLabel;html=1;align=center;verticalAlign=middle;resizable=0;points=[];" vertex="1" connectable="0" parent="lfwIpQtfmE1u0c_9Xs-n-122">
          <mxGeometry x="-0.0839" y="1" relative="1" as="geometry">
            <mxPoint x="-58" y="-1" as="offset" />
          </mxGeometry>
        </mxCell>
        <mxCell id="lfwIpQtfmE1u0c_9Xs-n-124" value="rpc" style="edgeStyle=elbowEdgeStyle;elbow=horizontal;endArrow=classic;html=1;curved=0;rounded=0;endSize=8;startSize=8;exitX=1.004;exitY=0.177;exitDx=0;exitDy=0;entryX=0;entryY=0.75;entryDx=0;entryDy=0;strokeColor=#9933FF;startArrow=classic;startFill=1;exitPerimeter=0;" edge="1" parent="1" source="lfwIpQtfmE1u0c_9Xs-n-2" target="lfwIpQtfmE1u0c_9Xs-n-103">
          <mxGeometry width="50" height="50" relative="1" as="geometry">
            <mxPoint x="660" y="145" as="sourcePoint" />
            <mxPoint x="860.56" y="-252.91499999999996" as="targetPoint" />
            <Array as="points">
              <mxPoint x="730" y="220" />
              <mxPoint x="730" y="101" />
              <mxPoint x="760" y="-26.5" />
            </Array>
          </mxGeometry>
        </mxCell>
        <mxCell id="lfwIpQtfmE1u0c_9Xs-n-125" value="" style="rounded=0;whiteSpace=wrap;html=1;strokeWidth=2;fillColor=#fff2cc;strokeColor=#d6b656;" vertex="1" parent="1">
          <mxGeometry x="1520" y="-258.5" width="400" height="342.5" as="geometry" />
        </mxCell>
        <mxCell id="lfwIpQtfmE1u0c_9Xs-n-126" value="&lt;font style=&quot;font-size: 36px;&quot; face=&quot;Times New Roman&quot; color=&quot;#ff3333&quot;&gt;&lt;b&gt;ajob: amedac job&lt;/b&gt;&lt;/font&gt;" style="text;strokeColor=none;align=center;fillColor=none;html=1;verticalAlign=middle;whiteSpace=wrap;rounded=0;" vertex="1" parent="1">
          <mxGeometry x="1591" y="-250" width="294" height="30" as="geometry" />
        </mxCell>
        <mxCell id="lfwIpQtfmE1u0c_9Xs-n-127" value="" style="rounded=0;whiteSpace=wrap;html=1;" vertex="1" parent="1">
          <mxGeometry x="1531" y="-199" width="150" height="115" as="geometry" />
        </mxCell>
        <mxCell id="lfwIpQtfmE1u0c_9Xs-n-128" value="" style="rounded=0;whiteSpace=wrap;html=1;strokeColor=#0000FF;" vertex="1" parent="1">
          <mxGeometry x="1546" y="-193" width="120" height="59" as="geometry" />
        </mxCell>
        <mxCell id="lfwIpQtfmE1u0c_9Xs-n-129" value="&lt;font face=&quot;Times New Roman&quot;&gt;rpc client&lt;/font&gt;" style="rounded=1;whiteSpace=wrap;html=1;" vertex="1" parent="1">
          <mxGeometry x="1570" y="-169" width="70" height="25" as="geometry" />
        </mxCell>
        <mxCell id="lfwIpQtfmE1u0c_9Xs-n-130" value="&lt;font face=&quot;Times New Roman&quot;&gt;&lt;b&gt;rpc&lt;br&gt;&lt;/b&gt;&lt;/font&gt;" style="text;strokeColor=none;align=center;fillColor=none;html=1;verticalAlign=middle;whiteSpace=wrap;rounded=0;fontColor=#3333FF;" vertex="1" parent="1">
          <mxGeometry x="1576" y="-199" width="60" height="30" as="geometry" />
        </mxCell>
        <mxCell id="lfwIpQtfmE1u0c_9Xs-n-131" value="&lt;font face=&quot;Times New Roman&quot; color=&quot;#3333ff&quot;&gt;pb&lt;/font&gt;" style="rounded=0;whiteSpace=wrap;html=1;strokeColor=#0000FF;" vertex="1" parent="1">
          <mxGeometry x="1546" y="-123" width="120" height="24" as="geometry" />
        </mxCell>
        <mxCell id="lfwIpQtfmE1u0c_9Xs-n-132" value="" style="rounded=0;whiteSpace=wrap;html=1;strokeColor=#0000FF;" vertex="1" parent="1">
          <mxGeometry x="1549" y="-65" width="120" height="104" as="geometry" />
        </mxCell>
        <mxCell id="lfwIpQtfmE1u0c_9Xs-n-133" value="&lt;font face=&quot;Times New Roman&quot;&gt;async stdout&lt;/font&gt;" style="rounded=1;whiteSpace=wrap;html=1;" vertex="1" parent="1">
          <mxGeometry x="1573" y="-40" width="70" height="29" as="geometry" />
        </mxCell>
        <mxCell id="lfwIpQtfmE1u0c_9Xs-n-134" value="&lt;font face=&quot;Times New Roman&quot;&gt;&lt;b&gt;log&lt;br&gt;&lt;/b&gt;&lt;/font&gt;" style="text;strokeColor=none;align=center;fillColor=none;html=1;verticalAlign=middle;whiteSpace=wrap;rounded=0;fontColor=#3333FF;" vertex="1" parent="1">
          <mxGeometry x="1579" y="-71" width="60" height="30" as="geometry" />
        </mxCell>
        <mxCell id="lfwIpQtfmE1u0c_9Xs-n-135" value="&lt;font face=&quot;Times New Roman&quot;&gt;async stderr&lt;/font&gt;" style="rounded=1;whiteSpace=wrap;html=1;" vertex="1" parent="1">
          <mxGeometry x="1573" y="-1" width="70" height="25" as="geometry" />
        </mxCell>
        <mxCell id="lfwIpQtfmE1u0c_9Xs-n-136" value="" style="rounded=0;whiteSpace=wrap;html=1;strokeColor=#0000FF;" vertex="1" parent="1">
          <mxGeometry x="1720" y="-200" width="150" height="64" as="geometry" />
        </mxCell>
        <mxCell id="lfwIpQtfmE1u0c_9Xs-n-137" value="&lt;font face=&quot;Times New Roman&quot;&gt;async message stream&lt;/font&gt;" style="rounded=1;whiteSpace=wrap;html=1;" vertex="1" parent="1">
          <mxGeometry x="1734" y="-172.5" width="126" height="28.5" as="geometry" />
        </mxCell>
        <mxCell id="lfwIpQtfmE1u0c_9Xs-n-138" value="&lt;font face=&quot;Times New Roman&quot;&gt;&lt;b&gt;async event&amp;nbsp;&lt;br&gt;&lt;/b&gt;&lt;/font&gt;" style="text;strokeColor=none;align=center;fillColor=none;html=1;verticalAlign=middle;whiteSpace=wrap;rounded=0;fontColor=#3333FF;" vertex="1" parent="1">
          <mxGeometry x="1745" y="-206" width="100" height="30" as="geometry" />
        </mxCell>
        <mxCell id="lfwIpQtfmE1u0c_9Xs-n-139" style="edgeStyle=orthogonalEdgeStyle;rounded=0;orthogonalLoop=1;jettySize=auto;html=1;exitX=0.5;exitY=1;exitDx=0;exitDy=0;" edge="1" parent="1" source="lfwIpQtfmE1u0c_9Xs-n-128" target="lfwIpQtfmE1u0c_9Xs-n-128">
          <mxGeometry relative="1" as="geometry" />
        </mxCell>
        <mxCell id="lfwIpQtfmE1u0c_9Xs-n-140" value="rpc" style="edgeStyle=elbowEdgeStyle;endArrow=classic;html=1;rounded=0;endSize=8;startSize=8;strokeColor=#9933FF;startArrow=classic;startFill=1;elbow=vertical;exitX=0.42;exitY=0.996;exitDx=0;exitDy=0;exitPerimeter=0;" edge="1" parent="1" source="lfwIpQtfmE1u0c_9Xs-n-2">
          <mxGeometry x="-0.1749" width="50" height="50" relative="1" as="geometry">
            <mxPoint x="320" y="780" as="sourcePoint" />
            <mxPoint x="1759" y="85" as="targetPoint" />
            <Array as="points">
              <mxPoint x="1060" y="480" />
            </Array>
            <mxPoint as="offset" />
          </mxGeometry>
        </mxCell>
        <mxCell id="lfwIpQtfmE1u0c_9Xs-n-141" value="" style="edgeStyle=elbowEdgeStyle;elbow=horizontal;endArrow=classic;html=1;curved=0;rounded=0;endSize=8;startSize=8;exitX=1;exitY=0.5;exitDx=0;exitDy=0;strokeColor=#9933FF;startArrow=none;startFill=0;entryX=0;entryY=0.5;entryDx=0;entryDy=0;" edge="1" parent="1" source="lfwIpQtfmE1u0c_9Xs-n-44" target="lfwIpQtfmE1u0c_9Xs-n-125">
          <mxGeometry width="50" height="50" relative="1" as="geometry">
            <mxPoint x="1458" y="402.03999999999996" as="sourcePoint" />
            <mxPoint x="1654" y="402.03999999999996" as="targetPoint" />
            <Array as="points" />
          </mxGeometry>
        </mxCell>
        <mxCell id="lfwIpQtfmE1u0c_9Xs-n-142" value="local call" style="edgeLabel;html=1;align=center;verticalAlign=middle;resizable=0;points=[];" vertex="1" connectable="0" parent="lfwIpQtfmE1u0c_9Xs-n-141">
          <mxGeometry x="-0.0839" y="1" relative="1" as="geometry">
            <mxPoint as="offset" />
          </mxGeometry>
        </mxCell>
        <mxCell id="lfwIpQtfmE1u0c_9Xs-n-143" value="&lt;font face=&quot;Times New Roman&quot;&gt;smp&lt;/font&gt;" style="rounded=0;whiteSpace=wrap;html=1;strokeColor=#0000FF;" vertex="1" parent="1">
          <mxGeometry x="1720" y="-121" width="150" height="24" as="geometry" />
        </mxCell>
        <mxCell id="lfwIpQtfmE1u0c_9Xs-n-144" value="" style="rounded=0;whiteSpace=wrap;html=1;strokeColor=#0000FF;" vertex="1" parent="1">
          <mxGeometry x="1716" y="-81" width="170" height="59" as="geometry" />
        </mxCell>
        <mxCell id="lfwIpQtfmE1u0c_9Xs-n-145" value="&lt;font face=&quot;Times New Roman&quot;&gt;monitor tool&lt;/font&gt;" style="rounded=1;whiteSpace=wrap;html=1;" vertex="1" parent="1">
          <mxGeometry x="1723" y="-57" width="156" height="25" as="geometry" />
        </mxCell>
        <mxCell id="lfwIpQtfmE1u0c_9Xs-n-146" value="&lt;font face=&quot;Times New Roman&quot;&gt;&lt;b&gt;timer&lt;br&gt;&lt;/b&gt;&lt;/font&gt;" style="text;strokeColor=none;align=center;fillColor=none;html=1;verticalAlign=middle;whiteSpace=wrap;rounded=0;fontColor=#3333FF;" vertex="1" parent="1">
          <mxGeometry x="1772" y="-87" width="60" height="30" as="geometry" />
        </mxCell>
        <mxCell id="lfwIpQtfmE1u0c_9Xs-n-147" value="" style="rounded=0;whiteSpace=wrap;html=1;strokeWidth=2;fillColor=#f8cecc;strokeColor=#b85450;" vertex="1" parent="1">
          <mxGeometry x="2160.5" y="-219" width="210" height="227" as="geometry" />
        </mxCell>
        <mxCell id="lfwIpQtfmE1u0c_9Xs-n-148" style="edgeStyle=orthogonalEdgeStyle;rounded=0;orthogonalLoop=1;jettySize=auto;html=1;exitX=0.5;exitY=1;exitDx=0;exitDy=0;" edge="1" parent="1">
          <mxGeometry relative="1" as="geometry">
            <mxPoint x="2176" y="-272.5" as="sourcePoint" />
            <mxPoint x="2176" y="-272.5" as="targetPoint" />
          </mxGeometry>
        </mxCell>
        <mxCell id="lfwIpQtfmE1u0c_9Xs-n-149" value="call" style="edgeStyle=elbowEdgeStyle;elbow=horizontal;endArrow=none;html=1;curved=0;rounded=0;endSize=8;startSize=8;strokeColor=#9933FF;startArrow=classic;startFill=1;entryX=1.001;entryY=0.42;entryDx=0;entryDy=0;entryPerimeter=0;exitX=0.011;exitY=0.617;exitDx=0;exitDy=0;endFill=0;exitPerimeter=0;" edge="1" parent="1" target="lfwIpQtfmE1u0c_9Xs-n-125">
          <mxGeometry x="0.0068" width="50" height="50" relative="1" as="geometry">
            <mxPoint x="2162.8100000000004" y="-114.13000000000011" as="sourcePoint" />
            <mxPoint x="2240" y="99" as="targetPoint" />
            <Array as="points">
              <mxPoint x="2000" y="8" />
              <mxPoint x="2198" y="8.659999999999968" />
            </Array>
            <mxPoint as="offset" />
          </mxGeometry>
        </mxCell>
        <mxCell id="lfwIpQtfmE1u0c_9Xs-n-150" value="&lt;font face=&quot;Times New Roman&quot; color=&quot;#0000ff&quot;&gt;preprocess second stage&lt;/font&gt;" style="rounded=0;whiteSpace=wrap;html=1;strokeColor=#0000FF;" vertex="1" parent="1">
          <mxGeometry x="1719" y="-5.25" width="171" height="29.25" as="geometry" />
        </mxCell>
        <mxCell id="lfwIpQtfmE1u0c_9Xs-n-151" value="&lt;font face=&quot;Times New Roman&quot; color=&quot;#0000ff&quot;&gt;extract doe&lt;/font&gt;" style="rounded=0;whiteSpace=wrap;html=1;strokeColor=#0000FF;" vertex="1" parent="1">
          <mxGeometry x="1720" y="41" width="171" height="24" as="geometry" />
        </mxCell>
        <mxCell id="lfwIpQtfmE1u0c_9Xs-n-152" value="&lt;font face=&quot;Times New Roman&quot; color=&quot;#0000ff&quot;&gt;job status&lt;/font&gt;" style="rounded=0;whiteSpace=wrap;html=1;strokeColor=#0000FF;" vertex="1" parent="1">
          <mxGeometry x="1547" y="46.25" width="122" height="24.75" as="geometry" />
        </mxCell>
        <mxCell id="lfwIpQtfmE1u0c_9Xs-n-153" style="edgeStyle=orthogonalEdgeStyle;rounded=0;orthogonalLoop=1;jettySize=auto;html=1;exitX=0.5;exitY=1;exitDx=0;exitDy=0;" edge="1" parent="1">
          <mxGeometry relative="1" as="geometry">
            <mxPoint x="948.5700000000002" y="-695.5" as="sourcePoint" />
            <mxPoint x="948.5700000000002" y="-695.5" as="targetPoint" />
          </mxGeometry>
        </mxCell>
        <mxCell id="lfwIpQtfmE1u0c_9Xs-n-154" value="call" style="edgeStyle=elbowEdgeStyle;elbow=horizontal;endArrow=classic;html=1;curved=0;rounded=0;endSize=8;startSize=8;strokeColor=#9933FF;startArrow=none;startFill=0;entryX=0;entryY=0.5;entryDx=0;entryDy=0;" edge="1" parent="1" target="lfwIpQtfmE1u0c_9Xs-n-164">
          <mxGeometry x="-0.4084" width="50" height="50" relative="1" as="geometry">
            <mxPoint x="160" y="-254" as="sourcePoint" />
            <mxPoint x="840.5700000000002" y="-777.5" as="targetPoint" />
            <Array as="points">
              <mxPoint x="90" y="160" />
              <mxPoint x="400" y="-450" />
            </Array>
            <mxPoint y="-1" as="offset" />
          </mxGeometry>
        </mxCell>
        <mxCell id="lfwIpQtfmE1u0c_9Xs-n-155" value="" style="edgeStyle=elbowEdgeStyle;elbow=horizontal;endArrow=classic;html=1;curved=0;rounded=0;endSize=8;startSize=8;strokeColor=#9933FF;startArrow=none;startFill=0;entryX=1;entryY=0.5;entryDx=0;entryDy=0;" edge="1" parent="1" target="lfwIpQtfmE1u0c_9Xs-n-103">
          <mxGeometry width="50" height="50" relative="1" as="geometry">
            <mxPoint x="1520" y="-216" as="sourcePoint" />
            <mxPoint x="2320" y="-737.5" as="targetPoint" />
            <Array as="points" />
          </mxGeometry>
        </mxCell>
        <mxCell id="lfwIpQtfmE1u0c_9Xs-n-156" value="call" style="edgeLabel;html=1;align=center;verticalAlign=middle;resizable=0;points=[];" vertex="1" connectable="0" parent="lfwIpQtfmE1u0c_9Xs-n-155">
          <mxGeometry x="-0.0839" y="1" relative="1" as="geometry">
            <mxPoint as="offset" />
          </mxGeometry>
        </mxCell>
        <mxCell id="lfwIpQtfmE1u0c_9Xs-n-157" value="&lt;font style=&quot;font-size: 36px;&quot; face=&quot;Times New Roman&quot; color=&quot;#ff3333&quot;&gt;&lt;b style=&quot;&quot;&gt;awb: amedac workbench&lt;/b&gt;&lt;/font&gt;" style="text;strokeColor=none;align=center;fillColor=none;html=1;verticalAlign=middle;whiteSpace=wrap;rounded=0;" vertex="1" parent="1">
          <mxGeometry x="820.0000000000001" y="-660" width="444" height="30" as="geometry" />
        </mxCell>
        <mxCell id="lfwIpQtfmE1u0c_9Xs-n-158" value="call" style="edgeStyle=elbowEdgeStyle;elbow=horizontal;endArrow=classic;html=1;curved=0;rounded=0;endSize=8;startSize=8;exitX=1.004;exitY=0.806;exitDx=0;exitDy=0;entryX=0;entryY=0.5;entryDx=0;entryDy=0;strokeColor=#9933FF;startArrow=none;startFill=0;exitPerimeter=0;" edge="1" parent="1">
          <mxGeometry width="50" height="50" relative="1" as="geometry">
            <mxPoint x="640" y="233.45999999999998" as="sourcePoint" />
            <mxPoint x="838" y="233.45999999999998" as="targetPoint" />
            <Array as="points">
              <mxPoint x="728" y="87.46" />
              <mxPoint x="758" y="-40.040000000000006" />
            </Array>
          </mxGeometry>
        </mxCell>
        <mxCell id="lfwIpQtfmE1u0c_9Xs-n-159" value="call" style="edgeStyle=elbowEdgeStyle;elbow=horizontal;endArrow=classic;html=1;curved=0;rounded=0;endSize=8;startSize=8;strokeColor=#9933FF;startArrow=none;startFill=0;entryX=0.5;entryY=1;entryDx=0;entryDy=0;" edge="1" parent="1" target="lfwIpQtfmE1u0c_9Xs-n-103">
          <mxGeometry width="50" height="50" relative="1" as="geometry">
            <mxPoint x="1120" y="-233" as="sourcePoint" />
            <mxPoint x="1579" y="-673" as="targetPoint" />
            <Array as="points">
              <mxPoint x="1120" y="-243" />
              <mxPoint x="1609" y="-749.5" />
            </Array>
          </mxGeometry>
        </mxCell>
        <mxCell id="lfwIpQtfmE1u0c_9Xs-n-160" value="&lt;font style=&quot;font-size: 36px;&quot; face=&quot;Times New Roman&quot; color=&quot;#ff3333&quot;&gt;&lt;b style=&quot;&quot;&gt;tool&lt;/b&gt;&lt;/font&gt;" style="text;strokeColor=none;align=center;fillColor=none;html=1;verticalAlign=middle;whiteSpace=wrap;rounded=0;" vertex="1" parent="1">
          <mxGeometry x="2168.5" y="-218" width="186" height="30" as="geometry" />
        </mxCell>
        <mxCell id="lfwIpQtfmE1u0c_9Xs-n-161" value="&lt;font face=&quot;Times New Roman&quot;&gt;&lt;b&gt;&lt;font style=&quot;font-size: 18px;&quot;&gt;adevice: amedac device&lt;/font&gt;&lt;br&gt;&lt;/b&gt;&lt;/font&gt;" style="text;strokeColor=default;align=center;fillColor=none;html=1;verticalAlign=middle;whiteSpace=wrap;rounded=0;fontColor=#3333FF;strokeWidth=2;" vertex="1" parent="1">
          <mxGeometry x="2168.5" y="-166" width="194" height="28" as="geometry" />
        </mxCell>
        <mxCell id="lfwIpQtfmE1u0c_9Xs-n-162" value="&lt;font face=&quot;Times New Roman&quot;&gt;&lt;b&gt;&lt;font style=&quot;font-size: 18px;&quot;&gt;visual&lt;/font&gt;&lt;br&gt;&lt;/b&gt;&lt;/font&gt;" style="text;strokeColor=default;align=center;fillColor=none;html=1;verticalAlign=middle;whiteSpace=wrap;rounded=0;fontColor=#3333FF;dashed=1;strokeWidth=2;" vertex="1" parent="1">
          <mxGeometry x="2168.5" y="-107" width="194" height="30" as="geometry" />
        </mxCell>
        <mxCell id="lfwIpQtfmE1u0c_9Xs-n-163" value="&lt;font face=&quot;Times New Roman&quot;&gt;&lt;b&gt;&lt;font style=&quot;font-size: 18px;&quot;&gt;mesh&lt;/font&gt;&lt;br&gt;&lt;/b&gt;&lt;/font&gt;" style="text;strokeColor=default;align=center;fillColor=none;html=1;verticalAlign=middle;whiteSpace=wrap;rounded=0;fontColor=#3333FF;dashed=1;strokeWidth=2;" vertex="1" parent="1">
          <mxGeometry x="2168.5" y="-52" width="194" height="30" as="geometry" />
        </mxCell>
        <mxCell id="lfwIpQtfmE1u0c_9Xs-n-164" value="" style="rounded=0;whiteSpace=wrap;html=1;strokeWidth=2;fillColor=#e1d5e7;strokeColor=#9673a6;" vertex="1" parent="1">
          <mxGeometry x="840" y="500" width="559.43" height="170" as="geometry" />
        </mxCell>
        <mxCell id="lfwIpQtfmE1u0c_9Xs-n-165" value="&lt;font style=&quot;font-size: 36px;&quot; face=&quot;Times New Roman&quot; color=&quot;#ff3333&quot;&gt;&lt;b&gt;acleanup: amedac cleanup&lt;/b&gt;&lt;/font&gt;" style="text;strokeColor=none;align=center;fillColor=none;html=1;verticalAlign=middle;whiteSpace=wrap;rounded=0;" vertex="1" parent="1">
          <mxGeometry x="881.43" y="503" width="453.43" height="30" as="geometry" />
        </mxCell>
        <mxCell id="lfwIpQtfmE1u0c_9Xs-n-166" style="edgeStyle=orthogonalEdgeStyle;rounded=0;orthogonalLoop=1;jettySize=auto;html=1;exitX=0.5;exitY=1;exitDx=0;exitDy=0;" edge="1" parent="1">
          <mxGeometry relative="1" as="geometry">
            <mxPoint x="948.0000000000001" y="624.5" as="sourcePoint" />
            <mxPoint x="948.0000000000001" y="624.5" as="targetPoint" />
          </mxGeometry>
        </mxCell>
        <mxCell id="lfwIpQtfmE1u0c_9Xs-n-167" value="&lt;font face=&quot;Times New Roman&quot;&gt;clean job&lt;/font&gt;" style="rounded=0;whiteSpace=wrap;html=1;strokeColor=#0000FF;" vertex="1" parent="1">
          <mxGeometry x="1047.93" y="560" width="107" height="24" as="geometry" />
        </mxCell>
        <mxCell id="lfwIpQtfmE1u0c_9Xs-n-168" value="&lt;font face=&quot;Times New Roman&quot;&gt;clean log&lt;/font&gt;" style="rounded=0;whiteSpace=wrap;html=1;strokeColor=#0000FF;" vertex="1" parent="1">
          <mxGeometry x="1217.43" y="560" width="122" height="24" as="geometry" />
        </mxCell>
        <mxCell id="lfwIpQtfmE1u0c_9Xs-n-169" value="&lt;font face=&quot;Times New Roman&quot;&gt;clean status&lt;/font&gt;" style="rounded=0;whiteSpace=wrap;html=1;strokeColor=#0000FF;" vertex="1" parent="1">
          <mxGeometry x="1045.93" y="610" width="107" height="24" as="geometry" />
        </mxCell>
        <mxCell id="lfwIpQtfmE1u0c_9Xs-n-170" value="&lt;font face=&quot;Times New Roman&quot;&gt;clean preprocessor&lt;/font&gt;" style="rounded=0;whiteSpace=wrap;html=1;strokeColor=#0000FF;" vertex="1" parent="1">
          <mxGeometry x="1218.43" y="610" width="122" height="24" as="geometry" />
        </mxCell>
        <mxCell id="lfwIpQtfmE1u0c_9Xs-n-171" value="&lt;font face=&quot;Times New Roman&quot;&gt;load project&lt;/font&gt;" style="rounded=0;whiteSpace=wrap;html=1;strokeColor=#0000FF;" vertex="1" parent="1">
          <mxGeometry x="880.43" y="560" width="107" height="24" as="geometry" />
        </mxCell>
        <mxCell id="lfwIpQtfmE1u0c_9Xs-n-172" value="&lt;font face=&quot;Times New Roman&quot;&gt;clean output&lt;/font&gt;" style="rounded=0;whiteSpace=wrap;html=1;strokeColor=#0000FF;" vertex="1" parent="1">
          <mxGeometry x="881.43" y="610" width="107" height="24" as="geometry" />
        </mxCell>
        <mxCell id="lfwIpQtfmE1u0c_9Xs-n-173" value="" style="edgeStyle=elbowEdgeStyle;elbow=horizontal;endArrow=classic;html=1;curved=0;rounded=0;endSize=8;startSize=8;exitX=1;exitY=0.5;exitDx=0;exitDy=0;strokeColor=#9933FF;startArrow=none;startFill=0;" edge="1" parent="1" source="lfwIpQtfmE1u0c_9Xs-n-53" target="lfwIpQtfmE1u0c_9Xs-n-125">
          <mxGeometry width="50" height="50" relative="1" as="geometry">
            <mxPoint x="1600" y="353.36" as="sourcePoint" />
            <mxPoint x="1669" y="121" as="targetPoint" />
            <Array as="points">
              <mxPoint x="1669" y="227.36" />
            </Array>
          </mxGeometry>
        </mxCell>
        <mxCell id="lfwIpQtfmE1u0c_9Xs-n-174" value="call" style="edgeLabel;html=1;align=center;verticalAlign=middle;resizable=0;points=[];" vertex="1" connectable="0" parent="lfwIpQtfmE1u0c_9Xs-n-173">
          <mxGeometry x="-0.0839" y="1" relative="1" as="geometry">
            <mxPoint as="offset" />
          </mxGeometry>
        </mxCell>
      </root>
    </mxGraphModel>
  </diagram>
</mxfile>
